# xmcd CD database file
#
# Track frame offsets:
#	225
#	19088
#	38188
#	55181
#	67649
#	79738
#	92242
#	106860
#	122947
#	133159
#	148470
#	178288
#	191591
#	202070
#	216287
#
# Disc length: 3049 seconds
#
# Revision: 1
# Processed by: cddbd v1.5.1PL0 Copyright (c) Steve Scherf et al.
# Submitted via: CDex 1.51
#
DISCID=e60be60f
DTITLE=Various Artist - Fetzige Volksmusik CD1
DYEAR=2000
DGENRE=Volksmusik
TTITLE0=Der Gogola
TTITLE1=Koa Hiatamadl mag i net
TTITLE2=Der Paul und sein Gaul
TTITLE3=Amboss Polka
TTITLE4=Unser Bernhardiner
TTITLE5=Im Herzen muass man's spür'n
TTITLE6=Aufgeigt weacht
TTITLE7=Resi i hol' di mit mei'n Traktor ab
TTITLE8=Maria und Toni
TTITLE9=Rock'n Roll am Bauernhof
TTITLE10=Schürzenjäger_Medley
TTITLE11=Wir sind die Kinder der ALpen
TTITLE12=Mein Heimatland Tirol
TTITLE13=Oh Zillertal, du schönes Tal
TTITLE14=Hohe Tannen
EXTD=YEAR: 2000
EXTT0=
EXTT1=
EXTT2=
EXTT3=
EXTT4=
EXTT5=
EXTT6=
EXTT7=
EXTT8=
EXTT9=
EXTT10=
EXTT11=
EXTT12=
EXTT13=
EXTT14=
PLAYORDER=
